<svg width="40" height="40" viewBox="0 0 40 40" fill="none" xmlns="http://www.w3.org/2000/svg">
<path d="M23.2244 39.7397C23.0577 39.7669 22.8905 39.7919 22.7227 39.8148C22.8905 39.7919 23.0577 39.7669 23.2244 39.7397Z" fill="black"/>
<path d="M23.6257 39.6714C23.546 39.686 23.4664 39.6995 23.3867 39.7132C23.4664 39.6995 23.546 39.686 23.6257 39.6714Z" fill="black"/>
<path d="M22.2756 39.8706C22.0806 39.8926 21.8843 39.9121 21.6875 39.9286C21.8843 39.9121 22.0806 39.8926 22.2756 39.8706Z" fill="black"/>
<path d="M22.6609 39.8232C22.5672 39.8358 22.4729 39.8474 22.3789 39.8583C22.4729 39.8474 22.5672 39.8358 22.6609 39.8232Z" fill="black"/>
<path d="M24.1702 39.563C24.1 39.5779 24.0295 39.5929 23.959 39.6072C24.0295 39.5929 24.1 39.5779 24.1702 39.563Z" fill="black"/>
<path d="M25.5199 39.2275C25.4631 39.2437 25.4064 39.259 25.3496 39.2748C25.4064 39.259 25.4631 39.2437 25.5199 39.2275Z" fill="black"/>
<path d="M25.1113 39.3394C25.0497 39.3555 24.9877 39.372 24.9258 39.3876C24.9877 39.372 25.0497 39.3558 25.1113 39.3394Z" fill="black"/>
<path d="M24.578 39.4731C24.5127 39.4884 24.4468 39.5027 24.3809 39.5174C24.4468 39.5027 24.5127 39.4884 24.578 39.4731Z" fill="black"/>
<path d="M21.6814 39.9292C21.5761 39.938 21.4708 39.946 21.3652 39.953C21.4708 39.946 21.5761 39.938 21.6814 39.9292Z" fill="black"/>
<path d="M40 20C40 8.95599 31.044 0 20 0C8.95599 0 0 8.95599 0 20C0 31.044 8.95599 40 20 40C20.1175 40 20.2344 39.9976 20.3516 39.9954V24.4263H16.0547V19.4186H20.3516V15.7336C20.3516 11.46 22.9605 9.13391 26.7728 9.13391C28.5983 9.13391 30.1675 9.27002 30.625 9.33075V13.7973H27.9962C25.9222 13.7973 25.5206 14.783 25.5206 16.2292V19.4186H30.4797L29.8334 24.4263H25.5206V39.2273C33.8803 36.8307 40 29.129 40 20Z" fill="white"/>
<path d="M21.3221 39.9556C21.114 39.969 20.905 39.9797 20.6953 39.9867C20.905 39.9797 21.114 39.969 21.3221 39.9556Z" fill="black"/>
<path d="M20.6836 39.9873C20.5731 39.991 20.4623 39.9937 20.3516 39.9955C20.4623 39.9937 20.5731 39.991 20.6836 39.9873Z" fill="black"/>
</svg>
